<svg xmlns="http://www.w3.org/2000/svg" width="283.036" height="43.872" viewBox="0 0 283.036 43.872"><defs><style>.a{fill:#111;}</style></defs><g transform="translate(-54.583 -636.248)"><g transform="translate(103.578 644.063)"><path class="a" d="M164,667.176q7.3,0,7.3,9V688.24H165.74v-10.7q0-5.392-3.609-5.393a3.738,3.738,0,0,0-3.036,1.507,6.581,6.581,0,0,0-1.21,4.225V688.24h-5.564v-10.7q0-5.392-3.652-5.393a3.865,3.865,0,0,0-3.164,1.507,6.588,6.588,0,0,0-1.21,4.225V688.24h-5.563V667.515h5.563v2.761h.042a7.6,7.6,0,0,1,6.2-3.1q4.332,0,6.158,3.312h.085A8.648,8.648,0,0,1,164,667.176Z" transform="translate(-138.731 -656.983)"/><path class="a" d="M214.145,667.515h5.521V688.24H214.4v-2.506h-.128a7.326,7.326,0,0,1-6.2,2.845,9.34,9.34,0,0,1-7.113-2.952,10.775,10.775,0,0,1-2.782-7.707,10.966,10.966,0,0,1,2.782-7.708,9.071,9.071,0,0,1,6.985-3.036,7.449,7.449,0,0,1,6.073,2.675h.127Zm-5.053,16.1a5.016,5.016,0,0,0,3.737-1.572,5.6,5.6,0,0,0,1.529-4.077,6,6,0,0,0-1.486-4.163,4.81,4.81,0,0,0-3.737-1.655,5.082,5.082,0,0,0-3.822,1.591,5.849,5.849,0,0,0-1.529,4.227,5.687,5.687,0,0,0,1.486,4.077A5.028,5.028,0,0,0,209.092,683.611Z" transform="translate(-163.565 -656.983)"/><path class="a" d="M241.21,680.927V649.67h5.563v31.257Z" transform="translate(-181.542 -649.67)"/><path class="a" d="M271.183,667.515H276.7V688.24h-5.266v-2.506h-.128a7.325,7.325,0,0,1-6.2,2.845A9.34,9.34,0,0,1,258,685.627a10.777,10.777,0,0,1-2.781-7.707A10.968,10.968,0,0,1,258,670.212a9.072,9.072,0,0,1,6.986-3.036,7.451,7.451,0,0,1,6.073,2.675h.127Zm-5.053,16.1a5.017,5.017,0,0,0,3.737-1.572,5.6,5.6,0,0,0,1.528-4.077,6.005,6.005,0,0,0-1.486-4.163,4.81,4.81,0,0,0-3.737-1.655,5.082,5.082,0,0,0-3.822,1.591,5.849,5.849,0,0,0-1.528,4.227,5.687,5.687,0,0,0,1.486,4.077A5.028,5.028,0,0,0,266.129,683.611Z" transform="translate(-187.392 -656.983)"/><path class="a" d="M306.326,672.7l-.052-.015-2.9,3.272v4.971h-5.563V649.67h5.563v18.9l.049.006,7.425-8.373h6.5l-7.305,8.238,7.434,12.488h-6.2Z" transform="translate(-205.186 -649.67)"/><path class="a" d="M345.506,667.515h5.521V688.24h-5.266v-2.506h-.128a7.325,7.325,0,0,1-6.2,2.845,9.34,9.34,0,0,1-7.113-2.952,10.777,10.777,0,0,1-2.781-7.707,10.968,10.968,0,0,1,2.781-7.708,9.072,9.072,0,0,1,6.986-3.036,7.451,7.451,0,0,1,6.073,2.675h.127Zm-5.053,16.1a5.017,5.017,0,0,0,3.737-1.572,5.6,5.6,0,0,0,1.528-4.077,6.005,6.005,0,0,0-1.486-4.163,4.81,4.81,0,0,0-3.737-1.655,5.082,5.082,0,0,0-3.823,1.591,5.849,5.849,0,0,0-1.528,4.227,5.687,5.687,0,0,0,1.486,4.077A5.028,5.028,0,0,0,340.452,683.611Z" transform="translate(-218.441 -656.983)"/><path class="a" d="M377.217,683.521a5.534,5.534,0,0,1-4.332-1.742,7.437,7.437,0,0,1-1.571-5.138v-9.6h-2.463v-4.587h2.463v-6.795l5.521-.594v7.389h5.648v4.587h-5.648v8.833q0,2.634,1.826,2.633a5.963,5.963,0,0,0,2.633-.723l1.445,4.459A11.528,11.528,0,0,1,377.217,683.521Z" transform="translate(-234.864 -651.925)"/><path class="a" d="M398.9,699.092a3.359,3.359,0,0,1-2.443-.976,3.2,3.2,0,0,1-1-2.378,3.274,3.274,0,0,1,1-2.4,3.462,3.462,0,0,1,4.863,0,3.237,3.237,0,0,1,1.02,2.4,3.168,3.168,0,0,1-1.02,2.378A3.379,3.379,0,0,1,398.9,699.092Z" transform="translate(-245.978 -667.495)"/><path class="a" d="M418.46,688.579a10.888,10.888,0,0,1-7.623-18.431,10.781,10.781,0,0,1,7.878-2.972,12.189,12.189,0,0,1,4.926,1.018,9.971,9.971,0,0,1,3.864,2.931l-3.737,3.227a6.125,6.125,0,0,0-4.841-2.208,5.283,5.283,0,0,0-3.992,1.591,5.677,5.677,0,0,0-1.529,4.1,5.758,5.758,0,0,0,1.55,4.162,5.315,5.315,0,0,0,4.013,1.614,6.148,6.148,0,0,0,4.841-2.123l3.78,3.355a10.655,10.655,0,0,1-3.8,2.7A13.054,13.054,0,0,1,418.46,688.579Z" transform="translate(-251.136 -656.983)"/><path class="a" d="M453.883,688.579a10.824,10.824,0,0,1-7.941-3.015,11.192,11.192,0,0,1,0-15.374,10.824,10.824,0,0,1,7.941-3.015,11,11,0,0,1,7.942,2.972,11.184,11.184,0,0,1,0,15.458A11,11,0,0,1,453.883,688.579Zm0-4.968A5.117,5.117,0,0,0,457.727,682a6.311,6.311,0,0,0,.021-8.261,5.133,5.133,0,0,0-3.865-1.591A5.046,5.046,0,0,0,450,673.779a6.262,6.262,0,0,0,.022,8.175A5.028,5.028,0,0,0,453.883,683.611Z" transform="translate(-265.792 -656.983)"/><path class="a" d="M510.017,667.176q7.3,0,7.3,9V688.24h-5.564v-10.7q0-5.392-3.609-5.393a3.739,3.739,0,0,0-3.036,1.507,6.581,6.581,0,0,0-1.211,4.225V688.24h-5.564v-10.7q0-5.392-3.652-5.393a3.864,3.864,0,0,0-3.164,1.507,6.585,6.585,0,0,0-1.21,4.225V688.24h-5.563V667.515h5.563v2.761h.043a7.6,7.6,0,0,1,6.2-3.1q4.332,0,6.158,3.312h.085A8.648,8.648,0,0,1,510.017,667.176Z" transform="translate(-283.28 -656.983)"/></g><g transform="translate(54.583 636.248)"><g transform="translate(0 11.269)"><path class="a" d="M94.8,684.4,92.315,655.6H84.63v1.8a3.591,3.591,0,1,1-4.536,0v-1.8H70.774v1.8a3.591,3.591,0,1,1-4.536,0v-1.8H58.96L56.471,684.4H54.583v3.8H75.242l-6.975-6.975-8.3-8.305.846-9.786,14.439,14.439,11.339-11.339,3.474-3.474.845,9.785-4.421,4.422h0L75.252,688.2H96.286v-3.8Z" transform="translate(-54.583 -655.602)"/><path class="a" d="M90.069,711.594l.005-.005h-.01Z" transform="translate(-69.405 -678.991)"/></g><path class="a" d="M91.741,649.879v-5.505a8.126,8.126,0,1,0-16.251,0v5.506a2.519,2.519,0,1,0,2.394,0v-5.505a5.731,5.731,0,1,1,11.463,0v5.506a2.519,2.519,0,1,0,2.394,0Z" transform="translate(-62.765 -636.248)"/></g></g></svg>